<?xml version="1.0" encoding="windows-1252"?>
<!-- Generator: Adobe Illustrator 19.0.0, SVG Export Plug-In . SVG Version: 6.00 Build 0)  -->
<svg version="1.1" id="Layer_1" xmlns="http://www.w3.org/2000/svg" xmlns:xlink="http://www.w3.org/1999/xlink" x="0px" y="0px" viewBox="0 0 491.52 491.52" style="enable-background:new 0 0 491.52 491.52;" xml:space="preserve">
<path style="fill:#FFFFFF;" d="M130.616,169.473c-42.132,0-76.287,34.154-76.287,76.287c0,42.133,34.155,76.288,76.287,76.288  c42.133,0,76.288-34.154,76.288-76.288C206.904,203.627,172.749,169.473,130.616,169.473z M130.616,291.74  c-25.394,0-45.98-20.586-45.98-45.98c0-25.394,20.587-45.979,45.98-45.979c25.393,0,45.98,20.586,45.98,45.979  C176.597,271.155,156.009,291.74,130.616,291.74z"/>
<circle style="fill:#D15241;" cx="130.616" cy="245.76" r="45.978"/>
<path style="fill:#E56353;" d="M255.62,222.449h-15.621c-2.882-13.59-8.265-26.237-15.591-37.513l11.082-11.083  c2.191-2.192,2.191-5.746,0-7.938l-25.029-25.029c-2.191-2.192-5.746-2.192-7.938,0l-11.082,11.084  c-11.275-7.327-23.925-12.708-37.515-15.592v-15.621c0-3.1-2.513-5.613-5.611-5.613h-35.397c-3.1,0-5.613,2.513-5.613,5.613v15.621  c-13.59,2.884-26.236,8.265-37.511,15.592l-11.085-11.084c-2.192-2.192-5.746-2.192-7.938,0l-25.028,25.029  c-2.192,2.192-2.192,5.746,0,7.938l11.083,11.083c-7.328,11.275-12.707,23.923-15.591,37.513H5.612  c-3.099,0-5.612,2.513-5.612,5.613v35.396c0,3.1,2.513,5.613,5.612,5.613h15.621c2.884,13.59,8.263,26.237,15.591,37.513  l-11.083,11.083c-2.192,2.193-2.192,5.746,0,7.939l25.028,25.029c2.192,2.192,5.746,2.192,7.938,0l11.085-11.083  c11.275,7.327,23.921,12.708,37.511,15.591v15.621c0,3.1,2.513,5.613,5.613,5.613h35.397c3.098,0,5.611-2.513,5.611-5.613v-15.621  c13.59-2.883,26.239-8.264,37.515-15.591l11.082,11.083c2.192,2.192,5.747,2.192,7.938,0l25.029-25.029  c2.191-2.192,2.191-5.745,0-7.939l-11.082-11.083c7.326-11.275,12.707-23.923,15.591-37.513h15.621c3.1,0,5.612-2.513,5.612-5.613  v-35.396C261.232,224.962,258.72,222.449,255.62,222.449z M130.616,330.62c-46.868,0-84.86-37.994-84.86-84.86  c0-46.868,37.993-84.86,84.86-84.86c46.867,0,84.86,37.993,84.86,84.86C215.476,292.627,177.483,330.62,130.616,330.62z"/>
<path style="fill:#D15241;" d="M130.616,160.9c-46.868,0-84.86,37.993-84.86,84.86c0,46.867,37.993,84.86,84.86,84.86  c46.867,0,84.86-37.994,84.86-84.86C215.476,198.892,177.483,160.9,130.616,160.9z M130.616,322.047  c-42.132,0-76.287-34.154-76.287-76.288c0-42.132,34.155-76.287,76.287-76.287c42.133,0,76.288,34.154,76.288,76.287  C206.904,287.892,172.749,322.047,130.616,322.047z"/>
<path style="fill:#D5D6DB;" d="M224.622,17.246H463.56c15.443,0,27.96,12.519,27.96,27.959v418.355  c0,15.442-12.517,27.959-27.96,27.959H224.622c-15.442,0-27.959-12.518-27.959-27.959V45.206  C196.662,29.765,209.18,17.246,224.622,17.246z"/>
<path style="fill:#EBF0F3;" d="M224.622,0H463.56c15.443,0,27.96,12.518,27.96,27.959v418.356c0,15.441-12.517,27.959-27.96,27.959  H224.622c-15.442,0-27.959-12.519-27.959-27.959V27.959C196.662,12.518,209.18,0,224.622,0z"/>
<g>
	<path style="fill:#64798A;" d="M231.158,395.561V54.53c0-2.542,2.183-4.602,4.877-4.602h216.112c2.694,0,4.877,2.061,4.877,4.602   v341.031c0,2.543-2.183,4.603-4.877,4.603H236.035C233.341,400.164,231.158,398.104,231.158,395.561z"/>
	<circle style="fill:#64798A;" cx="344.115" cy="438.835" r="23.393"/>
	<path style="fill:#64798A;" d="M299.944,18.782h88.295c4.308,0,7.803,3.493,7.803,7.804c0,4.309-3.494,7.804-7.803,7.804h-88.295   c-4.31,0-7.804-3.494-7.804-7.804C292.141,22.276,295.634,18.782,299.944,18.782z"/>
</g>
<polygon style="fill:#3EA69B;" points="297.059,248.718 248.718,200.376 248.718,217.888 146.145,217.888 146.145,279.547   248.718,279.547 248.718,297.06 "/>
<polygon style="fill:#44C4A1;" points="297.059,242.802 248.718,194.46 248.718,211.972 146.145,211.972 146.145,273.631   248.718,273.631 248.718,291.144 "/>
<rect x="256.461" y="340.275" style="fill:#E56353;" width="45.932" height="45.932"/>
<rect x="321.126" y="340.275" style="fill:#FCD462;" width="45.932" height="45.932"/>
<rect x="385.792" y="340.275" style="fill:#44C4A1;" width="45.932" height="45.932"/>
<rect x="321.126" y="268.749" style="fill:#EBF0F3;" width="45.932" height="45.932"/>
<rect x="385.792" y="268.749" style="fill:#E56353;" width="45.932" height="45.932"/>
<rect x="321.126" y="197.268" style="fill:#FCD462;" width="45.932" height="45.932"/>
<rect x="385.792" y="197.268" style="fill:#27A2DB;" width="45.932" height="45.932"/>
<g>
</g>
<g>
</g>
<g>
</g>
<g>
</g>
<g>
</g>
<g>
</g>
<g>
</g>
<g>
</g>
<g>
</g>
<g>
</g>
<g>
</g>
<g>
</g>
<g>
</g>
<g>
</g>
<g>
</g>
</svg>